<?xml version="1.0" encoding="utf-8"?>
<!-- Generator: Adobe Illustrator 25.4.1, SVG Export Plug-In . SVG Version: 6.00 Build 0)  -->
<svg version="1.1" id="Layer_1" xmlns="http://www.w3.org/2000/svg" xmlns:xlink="http://www.w3.org/1999/xlink" x="0px" y="0px"
	 viewBox="0 0 288 288" style="enable-background:new 0 0 288 288;" xml:space="preserve">
<style type="text/css">
	.st0{fill:#FFFFFF;}
	.st1{fill:#22CBF2;}
	.st2{fill:#FF4900;}
	.st3{fill:#A7F734;}
	.st4{fill:#3A3AF9;}
</style>
<rect width="288" height="288"/>
<g>
	<g id="peacock_00000009582380039272127670000003683125098539971209_">
		<g>
			<path class="st0" d="M81.27,145.33L64.2,162.4l-0.02,0.12l0.02-0.12c-0.98,1.48-1.55,3.26-1.55,5.18c0,5.19,4.21,9.4,9.4,9.4
				c4.55,0,8.35-3.24,9.22-7.54l0.01-0.01v-24.1H81.27z M71.95,175.09c-3.85,0-6.97-3.12-6.97-6.97s3.12-6.97,6.97-6.97
				s6.97,3.12,6.97,6.97S75.8,175.09,71.95,175.09z"/>
			<path class="st1" d="M71.95,161.67c3.56,0,6.45,2.89,6.45,6.45s-2.89,6.45-6.45,6.45s-6.45-2.89-6.45-6.45
				S68.4,161.67,71.95,161.67 M71.95,161.17c-3.84,0-6.95,3.11-6.95,6.95s3.11,6.95,6.95,6.95s6.95-3.11,6.95-6.95
				S75.79,161.17,71.95,161.17L71.95,161.17z"/>
			<path class="st0" d="M57.13,143.62l24.14-0.01l-17.05-17.04h-0.01c-3.65-2.43-8.63-2.03-11.85,1.19
				c-3.67,3.67-3.67,9.63,0.01,13.3C53.72,142.42,55.39,143.28,57.13,143.62l-0.1-0.07L57.13,143.62z M52,134.37
				c0-3.84,3.11-6.95,6.95-6.95s6.95,3.11,6.95,6.95s-3.11,6.95-6.95,6.95C55.11,141.32,52,138.21,52,134.37z"/>
			<path class="st2" d="M58.95,127.92c3.56,0,6.45,2.89,6.45,6.45s-2.89,6.45-6.45,6.45s-6.45-2.89-6.45-6.45
				C52.5,130.82,55.39,127.92,58.95,127.92 M58.95,127.42c-3.84,0-6.95,3.11-6.95,6.95s3.11,6.95,6.95,6.95s6.95-3.11,6.95-6.95
				S62.78,127.42,58.95,127.42L58.95,127.42z"/>
			<path class="st0" d="M81.27,144.34l-24.14-0.01l-1.54,1.02l1.43-0.95l0.11-0.07c-1.74,0.35-3.41,1.21-4.76,2.56
				c-3.67,3.67-3.68,9.63-0.01,13.3c3.22,3.22,8.19,3.62,11.85,1.19h0.01L81.27,144.34z M52,153.73c0-3.84,3.11-6.95,6.95-6.95
				s6.95,3.11,6.95,6.95s-3.11,6.95-6.95,6.95S52,157.57,52,153.73z"/>
			<path class="st3" d="M58.95,147.28c3.56,0,6.45,2.89,6.45,6.45s-2.89,6.45-6.45,6.45s-6.45-2.89-6.45-6.45
				C52.5,150.18,55.39,147.28,58.95,147.28 M58.95,146.78c-3.84,0-6.95,3.11-6.95,6.95s3.11,6.95,6.95,6.95s6.95-3.11,6.95-6.95
				S62.78,146.78,58.95,146.78L58.95,146.78z"/>
			<path class="st0" d="M81.26,118.56c-0.86-4.3-4.66-7.54-9.22-7.54c-5.19,0-9.4,4.21-9.4,9.4c0,1.91,0.57,3.69,1.55,5.18
				l-0.02-0.12l0.02,0.12l17.07,17.07V118.56L81.26,118.56z M71.95,127.49c-3.84,0-6.95-3.11-6.95-6.95s3.11-6.95,6.95-6.95
				s6.95,3.11,6.95,6.95S75.79,127.49,71.95,127.49z"/>
			<path class="st4" d="M71.95,114.09c3.56,0,6.45,2.89,6.45,6.45s-2.89,6.45-6.45,6.45s-6.45-2.89-6.45-6.45
				S68.4,114.09,71.95,114.09 M71.95,113.59c-3.84,0-6.95,3.11-6.95,6.95s3.11,6.95,6.95,6.95s6.95-3.11,6.95-6.95
				S75.79,113.59,71.95,113.59L71.95,113.59z"/>
		</g>
		<g>
			<g>
				<g>
					<circle class="st0" cx="90.88" cy="120.78" r="1.2"/>
					<circle class="st0" cx="93.47" cy="122" r="1.2"/>
					<circle class="st0" cx="88.27" cy="122" r="1.2"/>
				</g>
			</g>
			<g>
				<path class="st0" d="M99.33,146.42c-0.03-0.15-0.06-0.29-0.1-0.44c-0.02-0.16-0.05-0.33-0.09-0.5c-0.25-1.48-0.87-2.91-1.88-4.1
					c-0.23-0.27-0.47-0.53-0.71-0.8c-1.15-1.52-2.29-2.7-2.56-2.97c-0.1-0.14-0.21-0.26-0.31-0.4l0,0
					c-0.23-0.24-0.45-0.49-0.68-0.74c-3.71-4.43-3.49-6.3-3.49-6.3l0.01-0.01c0.01,0.06,0.04,0.1,0.06,0.16
					c-0.03-0.05-0.06-0.1-0.06-0.15c0,0,0.01,0.14,0.15,0.38c0.03,0.05,0.07,0.1,0.1,0.14c0.02,0.02,0.04,0.05,0.06,0.07
					c0.2,0.25,0.49,0.48,0.88,0.72c0.2,0.13,0.44,0.26,0.72,0.4c0.2,0.1,0.4,0.21,0.6,0.31c0.38,0.21,1.09,0.66,1.72,1.25
					c0.37,0.41,0.81,0.95,1.06,1.41c0.07,0.15,0.13,0.3,0.16,0.46c0.01,0.05,0.02,0.09,0.02,0.15c0,0,0.01,0,0.01-0.01
					c0,0,0,0,0,0.01l0.01-0.01c0.01,0,0.01-0.01,0.02-0.01h-0.01c0.03-0.04,0.16-0.2,0.29-0.52c0-0.01,0.01-0.01,0.01-0.02
					c0.06-0.13,0.11-0.29,0.16-0.48c0.33-1.23,0.08-2.64,0-3.01c-0.02-0.05-0.04-0.1-0.07-0.15c-0.11-0.22-0.13-0.43-0.02-0.67
					c0.95-2.09-0.2-4.35-2.42-5.49c-0.58-0.3-1.17-0.5-1.76-0.6l0,0c0,0-0.03,0-0.08-0.01c-0.99-0.16-1.94-0.03-2.79,0.34
					c-1.32,0.47-2.69,1.51-3.16,3.81l-0.08,0.28c-0.03,0.19-0.05,0.38-0.07,0.57l-0.01-0.01c0,0,0,0.05-0.01,0.13
					c-0.04,0.43-0.03,0.85,0,1.27c0.04,1.34,0.23,3.56,0.87,6.28l0,0c0,0,0.01,0.03,0.01,0.04c0.01,0.03,0.01,0.06,0.02,0.09
					c0.02,0.1,0.04,0.2,0.06,0.3c0.04,0.2,0.08,0.47,0.1,0.81c0.02,0.26,0.03,0.5,0.03,0.73c0,0.06,0,0.12,0,0.19
					c-0.09,4.47-4.27,5.03-4.27,5.03l0.02,6.67l0,0c-0.01,0.01-0.01,0.02-0.02,0.02c0.01,0,0.01,0,0.02,0.01v1.51
					c0.97-0.79,3.2-2.48,5.87-3.81c0.13-0.07,0.27-0.13,0.4-0.2c0.01,0,0.01,0,0.02-0.01c0.9-0.45,1.87-0.83,2.92-1.11
					c0.22-0.06,0.43-0.11,0.65-0.16c0.05-0.01,0.11-0.02,0.16-0.03c0.33-0.07,0.66-0.13,0.99-0.17c0.06-0.01,0.11-0.01,0.17-0.02
					c0.17-0.02,0.35-0.05,0.52-0.06L93.54,147c0.56-0.05,1.13-0.08,1.72-0.07c1.65,0.04,2.82,0.66,3.48,1.82
					c0.28,0.5,0.45,1.08,0.54,1.73c0.1-0.64,0.13-1.01,0.13-1.01l-0.01-0.01C99.51,148.5,99.51,147.48,99.33,146.42z M93.19,127.73
					c0.48,0,0.87,0.39,0.87,0.87s-0.39,0.87-0.87,0.87s-0.87-0.39-0.87-0.87S92.7,127.73,93.19,127.73z"/>
				<path class="st0" d="M98.32,149.01c-0.57-1.01-1.58-1.52-3.06-1.56c-0.13,0-0.25,0-0.38,0c-6.51,0-11.01,4.43-13,6.88v15.35
					c11.7-2.84,15.63-11.91,16.93-16.88C98.97,151.3,98.86,149.97,98.32,149.01z"/>
			</g>
		</g>
	</g>
	<g>
		<g>
			<path class="st0" d="M115.23,137.85c1.24,0,2.28,0.4,3.11,1.21s1.25,1.81,1.25,3.02s-0.42,2.21-1.25,3.02s-1.87,1.21-3.11,1.21
				h-2.73v3.96h-2.79v-12.42L115.23,137.85L115.23,137.85z M115.18,143.68c0.44,0,0.81-0.15,1.1-0.46s0.44-0.69,0.44-1.14
				c0-0.46-0.15-0.84-0.44-1.14s-0.66-0.46-1.1-0.46h-2.68v3.2L115.18,143.68L115.18,143.68z"/>
			<path class="st0" d="M122.26,139.92c-0.46,0-0.84-0.15-1.15-0.46s-0.47-0.69-0.47-1.16c0-0.46,0.16-0.84,0.47-1.14
				s0.69-0.46,1.15-0.46c0.47,0,0.86,0.15,1.17,0.46s0.47,0.69,0.47,1.14c0,0.46-0.16,0.85-0.47,1.16S122.73,139.92,122.26,139.92z
				 M120.95,150.27v-9.18h2.63v9.18L120.95,150.27L120.95,150.27z"/>
			<path class="st0" d="M132.36,141.1h2.63v12.6h-2.63v-4.33c-0.74,0.76-1.66,1.13-2.78,1.13c-1.26,0-2.31-0.46-3.16-1.38
				s-1.27-2.06-1.27-3.43s0.42-2.51,1.27-3.43c0.85-0.92,1.9-1.38,3.16-1.38c1.11,0,2.04,0.38,2.78,1.13V141.1z M130.11,147.95
				c0.64,0,1.18-0.22,1.61-0.65s0.64-0.97,0.64-1.62s-0.21-1.18-0.64-1.62s-0.96-0.65-1.61-0.65c-0.64,0-1.17,0.22-1.59,0.65
				c-0.43,0.43-0.64,0.97-0.64,1.62s0.21,1.18,0.64,1.62C128.94,147.74,129.47,147.95,130.11,147.95z"/>
			<path class="st0" d="M141.48,150.49c-1.41,0-2.59-0.46-3.54-1.38s-1.42-2.06-1.42-3.43s0.47-2.51,1.42-3.43s2.13-1.38,3.54-1.38
				c0.93,0,1.78,0.21,2.53,0.63s1.35,1,1.78,1.73s0.64,1.55,0.64,2.45s-0.21,1.71-0.64,2.45s-1.02,1.31-1.78,1.73
				S142.41,150.49,141.48,150.49z M139.87,147.3c0.43,0.43,0.96,0.65,1.61,0.65s1.18-0.22,1.61-0.65s0.64-0.97,0.64-1.62
				s-0.21-1.18-0.64-1.62s-0.96-0.65-1.61-0.65s-1.18,0.22-1.61,0.65s-0.64,0.97-0.64,1.62S139.45,146.87,139.87,147.3z"/>
			<path class="st0" d="M148.53,150.27v-12.42h1.1v12.42H148.53z"/>
			<path class="st0" d="M157.26,140.88c1.15,0,2.08,0.35,2.79,1.05c0.71,0.7,1.06,1.63,1.06,2.78v5.56h-1.04v-5.26
				c0-0.94-0.29-1.7-0.86-2.27c-0.57-0.57-1.33-0.86-2.26-0.86c-0.97,0-1.76,0.29-2.36,0.87s-0.9,1.34-0.9,2.29v5.22h-1.05v-9.18
				h1.05v1.72c0.35-0.62,0.82-1.1,1.44-1.44S156.46,140.88,157.26,140.88z"/>
			<path class="st0" d="M168.45,140.88c1.15,0,2.08,0.35,2.79,1.05c0.71,0.7,1.06,1.63,1.06,2.78v5.56h-1.04v-5.26
				c0-0.94-0.29-1.7-0.86-2.27c-0.57-0.57-1.33-0.86-2.26-0.86c-0.97,0-1.76,0.29-2.36,0.87s-0.9,1.34-0.9,2.29v5.22h-1.05v-9.18
				h1.05v1.72c0.35-0.62,0.82-1.1,1.44-1.44S167.65,140.88,168.45,140.88z"/>
			<path class="st0" d="M179.29,150.49c-1.38,0-2.54-0.46-3.47-1.38s-1.39-2.06-1.39-3.43s0.46-2.51,1.39-3.43s2.08-1.38,3.47-1.38
				c0.9,0,1.72,0.21,2.47,0.63c0.74,0.42,1.32,1,1.74,1.73s0.63,1.55,0.63,2.45s-0.21,1.71-0.63,2.45s-1,1.31-1.74,1.73
				S180.2,150.49,179.29,150.49z M176.6,148.4c0.72,0.72,1.62,1.09,2.7,1.09s1.97-0.36,2.69-1.09s1.07-1.63,1.07-2.71
				s-0.36-1.99-1.07-2.71s-1.61-1.09-2.69-1.09s-1.98,0.36-2.7,1.09s-1.08,1.63-1.08,2.71C175.51,146.77,175.87,147.67,176.6,148.4z
				"/>
			<path class="st0" d="M193.12,141.1h1.17l-4.17,9.18h-1.13l-4.17-9.18h1.2l3.57,7.97L193.12,141.1z"/>
			<path class="st0" d="M203.6,141.1h1.05v9.18h-1.05v-2.13c-0.39,0.73-0.93,1.3-1.62,1.72s-1.47,0.63-2.34,0.63
				c-1.33,0-2.44-0.46-3.33-1.38s-1.34-2.06-1.34-3.43s0.45-2.51,1.34-3.43s2-1.38,3.33-1.38c0.87,0,1.65,0.21,2.34,0.62
				s1.23,0.99,1.62,1.71V141.1z M199.82,149.48c1.08,0,1.98-0.36,2.7-1.09s1.08-1.63,1.08-2.71s-0.36-1.99-1.08-2.71
				s-1.62-1.09-2.7-1.09c-1.07,0-1.97,0.36-2.68,1.09c-0.72,0.72-1.08,1.63-1.08,2.71s0.36,1.99,1.08,2.71
				C197.85,149.12,198.74,149.48,199.82,149.48z"/>
			<path class="st0" d="M212.55,142.05h-2.93v5.87c0,1.04,0.54,1.56,1.62,1.56c0.45,0,0.88-0.11,1.31-0.34v0.99
				c-0.45,0.24-0.96,0.36-1.51,0.36c-0.8,0-1.41-0.2-1.83-0.61s-0.63-1.01-0.63-1.81v-6.03h-1.78v-0.95h1.78v-2.56h1.05v2.56h2.93
				L212.55,142.05L212.55,142.05z"/>
			<path class="st0" d="M215.2,138.94c-0.21,0-0.39-0.07-0.54-0.22s-0.22-0.33-0.22-0.54c0-0.21,0.08-0.38,0.22-0.52
				c0.15-0.14,0.33-0.22,0.53-0.22c0.22,0,0.4,0.07,0.55,0.22c0.15,0.14,0.22,0.32,0.22,0.52c0,0.22-0.08,0.4-0.22,0.54
				C215.6,138.86,215.41,138.94,215.2,138.94z M214.68,150.27v-9.18h1.05v9.18L214.68,150.27L214.68,150.27z"/>
			<path class="st0" d="M222.84,150.49c-1.38,0-2.54-0.46-3.47-1.38s-1.39-2.06-1.39-3.43s0.46-2.51,1.39-3.43s2.08-1.38,3.47-1.38
				c0.9,0,1.72,0.21,2.47,0.63c0.74,0.42,1.32,1,1.74,1.73s0.63,1.55,0.63,2.45s-0.21,1.71-0.63,2.45s-1,1.31-1.74,1.73
				S223.75,150.49,222.84,150.49z M220.15,148.4c0.72,0.72,1.62,1.09,2.7,1.09s1.97-0.36,2.69-1.09s1.07-1.63,1.07-2.71
				s-0.36-1.99-1.07-2.71s-1.61-1.09-2.69-1.09s-1.98,0.36-2.7,1.09s-1.08,1.63-1.08,2.71C219.06,146.77,219.43,147.67,220.15,148.4
				z"/>
			<path class="st0" d="M234.54,140.88c1.15,0,2.08,0.35,2.79,1.05c0.71,0.7,1.06,1.63,1.06,2.78v5.56h-1.04v-5.26
				c0-0.94-0.29-1.7-0.86-2.27c-0.57-0.57-1.33-0.86-2.26-0.86c-0.97,0-1.76,0.29-2.36,0.87s-0.9,1.34-0.9,2.29v5.22h-1.05v-9.18
				h1.05v1.72c0.35-0.62,0.82-1.1,1.44-1.44S233.74,140.88,234.54,140.88z"/>
		</g>
	</g>
</g>
</svg>
